# xmcd
# 
# Track frame offsets:
#     150
#     14488
#     34092
#     56782
#     73786
#     92926
#     113569
#     127431
#     146400
#     163718
#     180940
#     199482
#     212390
#     228620
#     248669
#     264404
#     277465
#     294981
#     307481
#     322144
# 
# Disc length: 4458
# 
# Revision: 0
# Processed by: cddbd v1.5.2PL0 Copyright (c) Steve Scherf et al.
# Submitted via: fre:ac v1.0.17
# 
DISCID=43116814
DTITLE=Jan Johansson - Blues
DYEAR=0
DGENRE=Blues
TTITLE0=01 - Blues in octaves
TTITLE1=02 - Soderhamn blues
TTITLE2=03 - Last minute blues
TTITLE3=04 - Scattered showers
TTITLE4=05 - An interview with piano
TTITLE5=06 - Mäster Johansgatan 12
TTITLE6=07 - Gale force blues
TTITLE7=08 - lover man
TTITLE8=09 - fog blues
TTITLE9=10 - They can't take that away
TTITLE10=11 - Willow weep for me
TTITLE11=12 - Just you, just me
TTITLE12=13 - Blowin' in the wind
TTITLE13=14 - Lonesome road
TTITLE14=15 - Full hand blues
TTITLE15=16 - Honey sucle rose
TTITLE16=17 - When the sun comes out
TTITLE17=5000 Meilen Von Zu Haus
TTITLE18=Bist Du Einsam Heut' Nacht
TTITLE19=Merci, Cherie
EXTD=
EXTT0=
EXTT1=
EXTT2=
EXTT3=
EXTT4=
EXTT5=
EXTT6=
EXTT7=
EXTT8=
EXTT9=
EXTT10=
EXTT11=
EXTT12=
EXTT13=
EXTT14=
EXTT15=
EXTT16=
EXTT17=
EXTT18=
EXTT19=
PLAYORDER=
